# xmcd CD database file
#
# Track frame offsets:
#	150
#	12757
#	29787
#	44046
#	57646
#	72443
#	86536
#	102491
#	117688
#	137623
#	151689
#	167227
#	180035
#	194114
#	212505
#
# Disc length: 3101 seconds
#
# Revision: 0
# Processed by: cddbd v1.5PL3 Copyright (c) Steve Scherf et al.
# Submitted via: CDex 1.51
#
DISCID=db0c1b0f
DTITLE=De Piotto's - Gipsy Passion
DYEAR=2004
DGENRE=Jazz
TTITLE0=My Melancholy Baby
TTITLE1=Je suis seul ce soir
TTITLE2=Swing for Jinny
TTITLE3=Paris sous la pluie
TTITLE4=On a Slow Boat to China
TTITLE5=Sjuka Tjsai
TTITLE6=On the Sunny Side of the Street
TTITLE7=Joseph Joseph
TTITLE8=Flamingo
TTITLE9=All of Me
TTITLE10=Hongaars
TTITLE11=A-mol Csardas
TTITLE12=Hora Mare
TTITLE13=Djelem Djelem
TTITLE14=Doina cu Fir Hora
EXTD=YEAR: 2004
EXTT0=
EXTT1=
EXTT2=
EXTT3=
EXTT4=
EXTT5=
EXTT6=
EXTT7=
EXTT8=
EXTT9=
EXTT10=
EXTT11=
EXTT12=
EXTT13=
EXTT14=
PLAYORDER=
